<svg xmlns="http://www.w3.org/2000/svg" viewBox="0 0 1000 1000" width="1000" height="1000" preserveAspectRatio="xMidYMid meet" style="width: 100%; height: 100%; transform: translate3d(0px, 0px, 0px); content-visibility: visible;"><defs><clipPath id="__lottie_element_3"><rect width="1000" height="1000" x="0" y="0"></rect></clipPath></defs><g clip-path="url(#__lottie_element_3)"><g transform="matrix(1.1055400371551514,0,0,1.1055400371551514,-52.50469970703125,-17.0931396484375)" opacity="1" style="display: block;"><g opacity="1" transform="matrix(0.9956102967262268,0.09359542280435562,-0.09359542280435562,0.9956102967262268,45.9710693359375,-44.7220458984375)"><g opacity="1" transform="matrix(1,0,0,1,499.760009765625,467.7300109863281)"><path fill="rgb(179,227,248)" fill-opacity="1" d=" M-167.49000549316406,167.48899841308594 C-167.49000549316406,167.48899841308594 167.49000549316406,167.48899841308594 167.49000549316406,167.48899841308594 C167.49000549316406,167.48899841308594 167.49000549316406,-167.48899841308594 167.49000549316406,-167.48899841308594 C167.49000549316406,-167.48899841308594 -167.49000549316406,-167.48899841308594 -167.49000549316406,-167.48899841308594 C-167.49000549316406,-167.48899841308594 -167.49000549316406,167.48899841308594 -167.49000549316406,167.48899841308594z M0,112.4209976196289 C-62.09000015258789,112.4209976196289 -112.41999816894531,62.090999603271484 -112.41999816894531,0.0010000000474974513 C-112.41999816894531,-62.0890007019043 -62.09000015258789,-112.41899871826172 0,-112.41899871826172 C62.09000015258789,-112.41899871826172 112.43099975585938,-62.0890007019043 112.43099975585938,0.0010000000474974513 C112.43099975585938,62.090999603271484 62.09000015258789,112.4209976196289 0,112.4209976196289z"></path></g><g opacity="1" transform="matrix(1,0,0,1,499.760009765625,467.72900390625)"><path fill="rgb(179,227,248)" fill-opacity="1" d=" M0,-236.8699951171875 C0,-236.8699951171875 -236.8699951171875,0.0010000000474974513 -236.8699951171875,0.0010000000474974513 C-236.8699951171875,0.0010000000474974513 0,236.8699951171875 0,236.8699951171875 C0,236.8699951171875 236.8699951171875,0.0010000000474974513 236.8699951171875,0.0010000000474974513 C236.8699951171875,0.0010000000474974513 0,-236.8699951171875 0,-236.8699951171875z M0,112.4209976196289 C-62.09000015258789,112.4209976196289 -112.41999816894531,62.090999603271484 -112.41999816894531,0.0010000000474974513 C-112.41999816894531,-62.0890007019043 -62.09000015258789,-112.41899871826172 0,-112.41899871826172 C62.09000015258789,-112.41899871826172 112.43099975585938,-62.0890007019043 112.43099975585938,0.0010000000474974513 C112.43099975585938,62.090999603271484 62.09000015258789,112.4209976196289 0,112.4209976196289z"></path></g></g><g opacity="1" transform="matrix(1.0030592679977417,0,0,1.0030592679977417,499.06231689453125,466.8139953613281)"><path fill="rgb(179,227,248)" fill-opacity="1" d=" M85.57599639892578,0 C85.57599639892578,47.26300048828125 47.26300048828125,85.57599639892578 0,85.57599639892578 C-47.26300048828125,85.57599639892578 -85.57599639892578,47.26300048828125 -85.57599639892578,0 C-85.57599639892578,-47.262001037597656 -47.26300048828125,-85.57599639892578 0,-85.57599639892578 C47.26300048828125,-85.57599639892578 85.57599639892578,-47.262001037597656 85.57599639892578,0z"></path></g></g></g></svg>