<?xml version="1.0" encoding="utf-8"?>
<!-- Generator: Adobe Illustrator 24.3.0, SVG Export Plug-In . SVG Version: 6.00 Build 0)  -->
<svg version="1.1" id="Capa_1" xmlns="http://www.w3.org/2000/svg" xmlns:xlink="http://www.w3.org/1999/xlink" x="0px" y="0px"
	 viewBox="0 0 1000 1000" style="enable-background:new 0 0 1000 1000;" xml:space="preserve">
<style type="text/css">
	.st0{fill:#FFFFFF;}
</style>
<rect x="1029.62" y="1023.64" width="1000" height="1000"/>
<path class="st0" d="M1000,497.82c0-0.09-0.01-0.18-0.01-0.26c-0.01-0.36-0.02-0.72-0.05-1.07c0-0.05,0-0.09-0.01-0.14
	s-0.03-0.11-0.03-0.16c-0.19-3.28-0.7-6.46-1.38-9.61c-0.46-2.45-1.05-4.85-1.76-7.19c-0.06-0.19-0.12-0.39-0.19-0.58
	c-8.35-25.1-30.94-44.22-57.83-49.09c-1.36-0.19-2.74-0.35-4.14-0.46c-1.56-0.21-3.13-0.36-4.73-0.49c-0.42,0-0.83-0.11-1.27-0.11
	h-1.25c-0.93-0.05-1.85-0.15-2.79-0.15h-68.49c-12.38,0-23.64-6.69-29.65-17.23l-0.36-0.64c-0.01-0.04-0.04-0.08-0.06-0.11
	c-0.27-0.48-0.54-0.96-0.79-1.46c-0.42-0.83-0.83-1.69-1.19-2.56c-0.36-0.86-0.69-1.74-0.96-2.61c-5.1-15.4,1-31.37,13.06-40.09
	c0.45-0.35,0.91-0.66,1.38-0.95c0.06-0.05,0.11-0.09,0.18-0.12c0.36-0.24,0.72-0.46,1.09-0.68c0.6-0.36,1.23-0.71,1.85-1.03
	c0.28-0.15,0.56-0.3,0.85-0.42c0.17-0.1,0.35-0.18,0.54-0.25c0.39-0.2,0.79-0.37,1.2-0.52c0.46-0.21,0.94-0.4,1.43-0.56
	c0.49-0.19,0.97-0.36,1.48-0.51c0.08-0.03,0.15-0.05,0.24-0.07c0.27-0.09,0.55-0.18,0.84-0.24c0.11-0.04,0.21-0.07,0.33-0.1
	c0.11-0.04,0.23-0.08,0.34-0.09c0.16-0.05,0.31-0.09,0.47-0.12c0.25-0.06,0.51-0.12,0.78-0.18c0.1-0.04,0.19-0.05,0.29-0.06
	c0.58-0.14,1.16-0.25,1.75-0.33c0.3-0.05,0.6-0.1,0.9-0.14c0.3-0.05,0.6-0.09,0.9-0.11c0.23-0.04,0.45-0.05,0.68-0.08
	c0.34-0.04,0.68-0.06,1.01-0.07c0.46-0.04,0.94-0.06,1.41-0.06c0,0,0.01-0.01,0.02,0c0.15-0.01,0.31-0.01,0.48-0.01
	c0.15-0.01,0.31-0.01,0.48-0.01h26.89c7.04,0,13.86-1.03,20.3-2.91h0.01c1.18-0.35,2.33-0.72,3.48-1.12c1.71-0.61,3.41-1.28,5.06-2
	c1.28-0.55,2.51-1.14,3.74-1.76c0.51-0.26,1.03-0.54,1.53-0.8c1.53-0.82,3.01-1.71,4.46-2.62c1.45-0.92,2.86-1.9,4.24-2.93
	c0.93-0.69,1.83-1.39,2.7-2.11c1.76-1.45,3.45-2.98,5.05-4.59c0.14-0.14,0.28-0.29,0.41-0.42c0.54-0.55,1.08-1.11,1.59-1.68
	c0.65-0.71,1.29-1.44,1.91-2.17c0.83-0.98,1.64-1.97,2.41-3c0.78-1.03,1.53-2.08,2.25-3.14c0.36-0.54,0.71-1.08,1.06-1.61
	c0.92-1.45,1.8-2.94,2.63-4.45c0.55-1.01,1.08-2.04,1.58-3.07c0.5-1.04,0.97-2.1,1.43-3.16c0.45-1.06,0.88-2.15,1.28-3.24
	c0.3-0.81,0.59-1.64,0.85-2.47c0.28-0.84,0.54-1.67,0.78-2.53c0.31-1.07,0.59-2.17,0.84-3.27c0.45-1.93,0.83-3.87,1.11-5.86
	c0.15-1.04,0.29-2.09,0.39-3.14c0.12-1.21,0.22-2.43,0.27-3.65s0.09-2.46,0.09-3.7c0-2.35-0.11-4.67-0.33-6.95
	c-0.09-0.92-0.2-1.82-0.31-2.74c-0.06-0.45-0.12-0.9-0.2-1.35c-0.19-1.2-0.4-2.4-0.65-3.58c-0.17-0.82-0.36-1.65-0.56-2.47
	c-0.25-1.04-0.53-2.07-0.83-3.1c-0.28-0.91-0.56-1.81-0.86-2.71c-0.19-0.55-0.38-1.1-0.59-1.65c-1.59-4.38-3.6-8.55-5.98-12.46
	c-0.3-0.5-0.61-0.99-0.92-1.48c-2.78-4.35-6.03-8.38-9.65-12c-12.91-12.93-30.78-20.92-50.55-20.92H767.87
	c-7.21,0-14.08-2.17-19.83-6c-4.95-3.31-9.1-7.85-11.91-13.32c-0.45-0.86-0.86-1.75-1.24-2.66c-0.38-0.91-0.72-1.82-1.01-2.75
	c-1.42-4.36-1.95-8.78-1.7-13.05c0.01-0.34,0.04-0.68,0.08-1.03c0.09-1.03,0.22-2.05,0.4-3.06c0.06-0.33,0.12-0.66,0.2-0.99
	c0.13-0.66,0.29-1.33,0.46-1.98c0.3-1.12,0.65-2.24,1.08-3.32c0.4-1.09,0.86-2.16,1.39-3.2c2.58-5.29,6.44-9.9,11.25-13.36
	c0.3-0.24,0.6-0.45,0.91-0.64c0.35-0.25,0.7-0.49,1.06-0.7c0.36-0.22,0.71-0.44,1.08-0.65c0.3-0.17,0.6-0.34,0.91-0.5
	c1.26-0.69,2.58-1.29,3.93-1.8c0.21-0.09,0.43-0.18,0.64-0.24c0.45-0.18,0.91-0.34,1.39-0.49c0.56-0.18,1.14-0.35,1.73-0.5
	c0.58-0.15,1.16-0.29,1.76-0.41c0.58-0.13,1.18-0.24,1.76-0.33c0.01,0,0.04-0.01,0.05-0.01c0.51-0.08,1.05-0.14,1.59-0.21
	c0.05,0,0.11-0.01,0.16-0.01c0.2-0.01,0.39-0.04,0.59-0.05c0.44-0.04,0.88-0.08,1.33-0.1h0.05c0.64-0.04,1.28-0.05,1.91-0.05h71.45
	c19.73,0,37.58-8,50.58-20.85c0.56-0.57,1.11-1.15,1.66-1.74c0.09-0.1,0.18-0.19,0.25-0.29c0.42-0.45,0.82-0.9,1.21-1.35
	c0.94-1.06,1.84-2.16,2.7-3.27c0.38-0.48,0.75-0.98,1.12-1.48c0.43-0.59,0.85-1.2,1.29-1.81c0.54-0.79,1.08-1.59,1.58-2.4
	c0.36-0.56,0.7-1.11,1.05-1.69c0,0,0,0,0-0.01c0.06-0.1,0.11-0.19,0.16-0.29c0.29-0.46,0.55-0.94,0.81-1.4
	c0.21-0.38,0.41-0.75,0.61-1.14c0.51-0.95,1-1.91,1.48-2.89c0.49-1.04,0.96-2.09,1.4-3.15c0.21-0.51,0.43-1.04,0.64-1.56
	c0.18-0.44,0.34-0.88,0.5-1.33c0.19-0.51,0.38-1.02,0.55-1.55c0.16-0.46,0.32-0.95,0.47-1.43c0.05-0.16,0.1-0.33,0.16-0.49
	c0.29-0.94,0.55-1.88,0.81-2.83c0.27-1.08,0.54-2.16,0.78-3.25c0.11-0.55,0.22-1.09,0.34-1.64c0.1-0.55,0.2-1.1,0.3-1.65
	c0-0.01,0-0.03,0-0.03c0.18-1.08,0.34-2.16,0.46-3.26c0.01-0.07,0.03-0.15,0.03-0.22c0.06-0.48,0.11-0.96,0.15-1.45
	c0.05-0.42,0.09-0.86,0.11-1.29c0.05-0.62,0.09-1.25,0.13-1.89C912.78,33.87,876.73,0,835.27,0h-228.1c-0.19,0-0.38,0.03-0.55,0.05
	h-0.06c-0.16,0.03-0.33,0.06-0.5,0.06c-0.38-0.01-0.76-0.05-1.14-0.08h-0.06c-0.15-0.01-0.3-0.01-0.44-0.02
	C604.24,0,604.06,0,603.87,0H160.72c-19.71,0-37.56,8-50.56,21c-2.41,2.41-4.65,5-6.7,7.74c-1.02,1.36-2,2.77-2.93,4.23
	c-0.93,1.44-1.8,2.92-2.63,4.44c-0.55,1.01-1.08,2.04-1.57,3.07c-4.5,9.36-7.04,19.85-7.04,30.94c0,39.57,32,71.43,71.43,71.43
	h71.19c25.48,0,42.75,25.9,32.98,49.42l-0.42,1.01l-88.73,213.24c-5.54,13.33-18.55,22-32.98,22H71.44c-19.73,0-37.58,8-50.44,21
	c-13,12.85-21,30.7-21,50.41c0,39.57,32,71.42,71.44,71.42h104.34l0.21,0.33l264.32,396.19c0.12,0.14,0.12,0.14,0.27,0.29
	c0.03,0.02,0.04,0.06,0.06,0.09c0.28,0.4,0.61,0.75,0.89,1.14c0.91,1.28,1.84,2.57,2.91,3.78c0.59,0.79,1.41,1.42,2.04,2.17
	c1.06,1.21,1.94,2.56,3.08,3.69c0.54,0.52,1.19,0.94,1.75,1.45c0.61,0.57,1.06,1.26,1.7,1.82c0.48,0.4,0.94,0.8,1.43,1.19
	c1.45,1.17,2.96,2.26,4.51,3.34c0.83,0.6,1.68,1.16,2.55,1.72l6.09,3.46c0.6,0.33,1.23,0.54,1.81,0.85
	c1.38,0.66,2.71,1.38,4.15,1.94c0.26,0.11,0.51,0.27,0.78,0.39c0.09,0.04,0.18,0.09,0.28,0.11c0.12,0,0.12,0,0.12,0
	c2.73,1.14,5.44,1.99,8.29,2.56c0.07,0.03,0.15,0.04,0.22,0.05c0.23,0.05,0.46,0.08,0.69,0.13c1.35,0.31,2.74,0.54,4.11,0.76
	c1.15,0.2,2.26,0.53,3.41,0.65c0.63,0.09,1.28,0.18,1.9,0.24c0.14,0.01,0.29,0.03,0.41,0.04c0.44,0.05,0.86,0.09,1.3,0.11
	c0.86,0.05,1.73,0.1,2.59,0.14c0.42,0.01,0.86,0.03,1.3,0.03c0.36,0.01,0.71,0.01,1.06,0.01c2.86,0,5.73-0.14,8.58-0.56
	c2.86-0.3,5.71-0.86,8.44-1.59c2.85-0.57,5.56-1.42,8.29-2.56h0.12c2.44-0.86,4.73-2,7-3.29c2.58-1.15,5.01-2.56,7.29-4.14
	c2.59-1.72,5.01-3.57,7.3-5.57c3.13-2.71,6.14-5.71,8.56-9.14c1.44-1.58,2.73-3.29,3.86-5l0.27-0.29l109.89-164.72l1.3-1.95
	l141.34-211.86l1.94-2.9l7.96-11.88l0.45-0.68l0.43-0.65l0.4-0.61l0.35-0.54l0.48-0.73h104.34c0.17,0,0.34-0.05,0.52-0.05
	c2.53-0.14,5.03-0.39,7.5-0.76c14.39-1.64,27.56-7.28,38.06-16.05c0.24-0.2,0.46-0.39,0.69-0.6c0.4-0.34,0.8-0.69,1.19-1.05
	c0.49-0.44,0.95-0.88,1.43-1.31c0.35-0.35,0.7-0.69,1.05-1.04c0.66-0.66,1.31-1.34,1.94-2.02c0.28-0.3,0.54-0.58,0.8-0.88
	c0.28-0.29,0.53-0.57,0.78-0.87c0.49-0.57,0.98-1.15,1.45-1.74c0.45-0.55,0.89-1.1,1.3-1.66c0.4-0.53,0.8-1.06,1.18-1.6
	c0.36-0.5,0.73-1.01,1.06-1.52c0.33-0.47,0.66-0.96,0.96-1.45c4.7-7.35,8.06-15.6,9.88-24.47c0.7-3.19,1.25-6.43,1.48-9.76
	c0.01-0.03,0.02-0.05,0.02-0.08c0.01-0.02,0.01-0.06,0.01-0.09c0.01-0.12,0.03-0.26,0.03-0.39c0.06-1.03,0-2.05,0-3.06
	c0.01-1.01,0.06-2.04,0.06-3.05C999.99,497.82,1000,497.82,1000,497.82z M704.86,493.07L553.23,720.19
	c-25.33,37.94-81.08,37.94-106.42,0L295.11,492.96l-0.21-0.33l-0.01-0.01l-0.09-0.14v-0.01l122.58-294.54
	c6.51-15.65,17.15-28.76,30.34-38.21c0.4-0.31,0.81-0.6,1.23-0.89c0.28-0.2,0.55-0.39,0.83-0.56c0.46-0.33,0.93-0.62,1.39-0.94
	c0.18-0.11,0.36-0.24,0.55-0.35c6.15-4.09,12.85-7.36,19.99-9.65c0.7-0.22,1.39-0.44,2.09-0.64c1.81-0.54,3.64-1.03,5.46-1.43
	c0.28-0.06,0.54-0.12,0.8-0.19c0.59-0.14,1.18-0.26,1.76-0.39c0.16-0.04,0.34-0.06,0.5-0.1c0.36-0.08,0.71-0.14,1.08-0.21h0.04
	c0.52-0.1,1.06-0.19,1.6-0.29c0.12-0.01,0.26-0.04,0.39-0.06c0.11-0.01,0.21-0.04,0.32-0.05c0.15-0.03,0.31-0.05,0.46-0.08
	c0.15-0.03,0.3-0.05,0.45-0.08c0.55-0.09,1.1-0.16,1.65-0.24c0.2-0.03,0.41-0.05,0.61-0.08c0.25-0.03,0.5-0.05,0.74-0.09
	c0.05,0,0.09-0.01,0.13-0.01c0.06,0,0.12-0.01,0.18-0.03c0.56-0.06,1.12-0.11,1.7-0.18h0.06c0.51-0.05,1.04-0.09,1.56-0.14
	c2.23-0.16,4.48-0.25,6.74-0.25h0.02c0.84,0,1.69,0.01,2.53,0.04c0.21,0,0.43,0.01,0.64,0.03c0.63,0.01,1.25,0.05,1.88,0.09
	c0.41,0.01,0.82,0.05,1.24,0.08c0.43,0.02,0.85,0.06,1.28,0.1c0.84,0.06,1.66,0.15,2.49,0.24c0.81,0.09,1.61,0.2,2.41,0.31
	c0.05,0,0.11,0.01,0.16,0.03c0.75,0.1,1.5,0.21,2.24,0.35c0.4,0.06,0.8,0.12,1.2,0.2c0.66,0.11,1.33,0.25,1.99,0.4
	c0.31,0.06,0.64,0.12,0.95,0.2c0.56,0.11,1.14,0.24,1.7,0.37c0.74,0.18,1.46,0.38,2.19,0.56c0.69,0.17,1.36,0.36,2.04,0.56
	c2.21,0.64,4.39,1.36,6.53,2.17c1.55,0.57,3.08,1.2,4.59,1.87c0.95,0.41,1.9,0.85,2.83,1.3c0.49,0.24,0.98,0.48,1.45,0.72
	c0.44,0.21,0.86,0.44,1.29,0.68c0.38,0.2,0.75,0.4,1.13,0.61c0.38,0.2,0.75,0.4,1.12,0.62c0.41,0.21,0.83,0.45,1.23,0.7
	c1.19,0.68,2.34,1.39,3.49,2.14c0.27,0.18,0.54,0.35,0.8,0.54c1.78,1.17,3.53,2.41,5.21,3.74c0.74,0.57,1.48,1.15,2.2,1.75
	c0.52,0.43,1.04,0.86,1.54,1.3c4.81,4.13,9.19,8.79,13.04,13.91c0.48,0.62,0.94,1.26,1.4,1.91c0.68,0.92,1.31,1.86,1.93,2.81
	c0.33,0.48,0.64,0.95,0.93,1.44c0.67,1.06,1.33,2.14,1.95,3.24c0.22,0.39,0.44,0.76,0.64,1.15c1.12,2.01,2.18,4.09,3.14,6.21
	c0.39,0.86,0.78,1.74,1.14,2.61l122.67,294.81l-0.08,0.1v0.01L704.86,493.07z"/>
<g>
</g>
<g>
</g>
<g>
</g>
<g>
</g>
<g>
</g>
<g>
</g>
<g>
</g>
<g>
</g>
<g>
</g>
<g>
</g>
<g>
</g>
<g>
</g>
<g>
</g>
<g>
</g>
<g>
</g>
</svg>
